<svg width="9" height="12" viewBox="0 0 9 12" fill="none" xmlns="http://www.w3.org/2000/svg">
<path d="M4.68618 4.29717C4.41502 4.02502 4.08487 3.80999 3.71784 3.6704C3.54455 3.86298 3.42656 4.09743 3.37728 4.35165C3.36388 4.42019 3.35584 4.48891 3.35215 4.5573C3.38231 4.56767 3.41182 4.57874 3.44066 4.59131C3.76042 4.72688 4.03494 4.95381 4.22732 5.23971C4.38183 5.4683 4.4844 5.73294 4.51893 6.01969C4.52798 6.09125 4.53233 6.16416 4.53233 6.23857C4.53233 6.48695 4.4824 6.72091 4.39224 6.93441C4.28029 7.1977 4.107 7.43064 3.88946 7.61181C3.84322 7.65085 3.7946 7.68708 3.74434 7.72109C3.45844 7.91415 3.11722 8.0261 2.74482 8.0261C2.49713 8.0261 2.26351 7.97599 2.04967 7.88598C1.72923 7.75041 1.45572 7.52332 1.26266 7.23758C1.07025 6.95216 0.958302 6.61013 0.958302 6.23857C0.958302 5.99037 1.00758 5.75675 1.09807 5.54273C1.21975 5.25549 1.41582 5.00478 1.66218 4.81758C1.65748 4.75271 1.65546 4.68786 1.65546 4.62301C1.65546 4.28985 1.70774 3.96471 1.80731 3.65735C1.42619 3.79595 1.08431 4.01632 0.804103 4.29721C0.307368 4.79245 -0.00100809 5.48175 2.47617e-06 6.23859C-0.000986118 6.99561 0.307389 7.6849 0.804103 8.1803C1.21771 8.59456 1.76607 8.87662 2.3761 8.95856V9.81429H1.10409V10.5513H2.3761V11.7875H3.1135V10.5513H4.38653V9.81427H3.1135V8.95854C3.72388 8.8766 4.2729 8.59454 4.68618 8.18028C4.82428 8.04218 4.9473 7.88968 5.0542 7.7246C5.33072 7.29641 5.49129 6.78476 5.49061 6.23857C5.49061 6.11038 5.48156 5.98351 5.4648 5.85983C5.38068 5.25312 5.09845 4.70844 4.68618 4.29717Z" fill="#CFCFCF"/>
<path d="M6.61689 0.539459V1.27653H7.74175L6.57934 2.43894C6.08996 2.06589 5.50173 1.87733 4.9165 1.87786C4.21563 1.87733 3.51008 2.14632 2.97512 2.68229C2.59234 3.06407 2.34633 3.53279 2.23638 4.02502C2.23504 4.03104 2.23438 4.03708 2.23269 4.04211C2.22834 4.06123 2.22465 4.08049 2.22098 4.09877C2.21426 4.1343 2.20824 4.16967 2.20255 4.20501C2.19886 4.2263 2.19585 4.2486 2.1935 4.26987C2.18915 4.30222 2.18546 4.3354 2.18278 4.36857C2.18111 4.38768 2.17909 4.40697 2.1781 4.42606C2.17744 4.43562 2.17676 4.44533 2.1761 4.45557C2.17441 4.47483 2.17375 4.49461 2.17307 4.5137C2.17173 4.5499 2.17072 4.58676 2.17072 4.62297C2.17072 4.65096 2.17173 4.67895 2.17241 4.70759C2.17375 4.73576 2.17544 4.76357 2.17676 4.79241L2.18111 4.85441C2.18111 4.86465 2.18278 4.87502 2.18344 4.88609C2.24244 5.49845 2.50688 6.0971 2.97512 6.5645C3.2587 6.84825 3.59051 7.05739 3.94346 7.19096C4.05036 7.07314 4.13753 6.93674 4.20021 6.78992C4.26489 6.63592 4.30177 6.473 4.30913 6.30492C4.0695 6.21878 3.84559 6.08018 3.65253 5.88712C3.4779 5.71165 3.34719 5.51106 3.26037 5.29585C3.19837 5.14383 3.15847 4.98464 3.14103 4.82407C3.12965 4.72903 3.12697 4.63318 3.13132 4.53817C3.13266 4.51453 3.13433 4.49175 3.13567 4.46879C3.13734 4.45188 3.13868 4.43494 3.14169 4.41785C3.14169 4.4113 3.14303 4.40478 3.14371 4.39807C3.14538 4.38182 3.1474 4.3649 3.15041 4.3488C3.1541 4.32668 3.15779 4.30372 3.16214 4.28177C3.18156 4.18137 3.2094 4.08267 3.24626 3.9868C3.25298 3.9692 3.25966 3.95228 3.26773 3.93451C3.27511 3.91608 3.28313 3.89765 3.29185 3.87922C3.29923 3.86078 3.30795 3.84233 3.31766 3.82458C3.3257 3.80632 3.33541 3.78855 3.34582 3.77095C3.39442 3.68079 3.45176 3.594 3.51744 3.51135C3.53085 3.49443 3.54493 3.47752 3.55868 3.46124C3.58917 3.42655 3.62002 3.3927 3.65319 3.35952C3.6944 3.31829 3.73632 3.27991 3.77988 3.24454C3.92268 3.12589 4.07919 3.03287 4.24342 2.96668C4.56553 2.83614 4.92015 2.80294 5.25836 2.86863C5.5969 2.93432 5.91731 3.09623 6.18078 3.3595C6.35609 3.53497 6.4858 3.73556 6.57262 3.95059C6.70401 4.2727 6.73721 4.62664 6.6715 4.96502C6.60513 5.30321 6.44289 5.62382 6.18078 5.88712C6.12314 5.94459 6.06281 5.99773 6.00013 6.04481C6.0038 6.10966 6.00582 6.17453 6.00582 6.23853C6.00684 6.56885 5.9542 6.89447 5.85332 7.20419C6.22035 7.07145 6.56456 6.85776 6.85786 6.56448C7.39315 6.03005 7.66297 5.3245 7.66229 4.62295C7.66295 4.03755 7.47426 3.45032 7.10053 2.96011L8.26294 1.7977V2.92307H8.99999V0.539459H6.61689Z" fill="#CFCFCF"/>
</svg>
