<svg width="9" height="9" viewBox="0 0 9 9" fill="none" xmlns="http://www.w3.org/2000/svg">
<path d="M7.62546 2.65297C7.58781 2.5887 7.54945 2.52416 7.50733 2.45933C7.30279 2.14381 7.04842 1.82399 6.74829 1.51555C6.35015 1.10619 5.9285 0.774983 5.52617 0.54314C5.32432 0.428086 5.12665 0.335623 4.93725 0.27177C4.74783 0.209147 4.56394 0.172241 4.38842 0.172241C4.27366 0.172241 4.16161 0.187784 4.05386 0.226226C3.94734 0.263149 3.845 0.325755 3.7621 0.410988L3.32655 0.858807L3.0965 1.09535C2.4923 0.950564 1.92123 0.85465 1.43099 0.854089C1.14327 0.85436 0.881899 0.886693 0.653735 0.970264C0.42652 1.05286 0.228308 1.19417 0.103011 1.40406C0.0359155 1.5151 -0.000400958 1.64143 3.33949e-06 1.76691C3.33949e-06 1.90058 0.0391499 2.02901 0.101798 2.14616C0.212506 2.35133 0.392611 2.53206 0.622411 2.706C0.967628 2.96542 1.43032 3.2071 1.96605 3.42406C2.5015 3.64062 3.10919 3.83107 3.7397 3.97918L3.83204 3.56359V3.56345C2.90045 3.34494 2.01857 3.02886 1.38319 2.68614C1.06578 2.51538 0.810462 2.33689 0.644805 2.17114C0.561907 2.08854 0.501965 2.00955 0.465367 1.94071C0.428383 1.87143 0.414883 1.81479 0.414742 1.7669C0.415287 1.72151 0.425395 1.67985 0.456051 1.6278C0.523692 1.51606 0.629002 1.4329 0.793323 1.37183C0.956536 1.31131 1.17445 1.28022 1.43099 1.28049C1.8051 1.28008 2.25901 1.34588 2.7491 1.45264L2.51512 1.69319L1.70072 2.53038C1.868 2.6142 2.05188 2.6953 2.24684 2.77345L3.63084 1.35045C3.68161 1.61309 3.7926 1.89489 3.95191 2.1893C4.17385 2.59673 4.49127 3.02522 4.8859 3.43113C5.28067 3.83687 5.69745 4.1631 6.09372 4.39145C6.3821 4.5565 6.65794 4.6713 6.915 4.72293L4.23627 7.46995L4.25153 7.45289C4.20872 7.49842 4.15202 7.53395 4.07599 7.56088C4.00134 7.58795 3.90722 7.60364 3.79666 7.60364C3.54919 7.60503 3.22435 7.52119 2.88277 7.34921C2.54131 7.17722 2.18191 6.91708 1.8514 6.5788C1.51833 6.2362 1.26113 5.85807 1.08966 5.4984C0.916845 5.13872 0.83261 4.79627 0.833946 4.53752C0.833946 4.42521 0.849063 4.33138 0.874059 4.25599C0.898897 4.18077 0.932102 4.12523 0.973552 4.08262L1.50724 3.5339C1.31782 3.44866 1.14083 3.3605 0.980425 3.27098L0.58228 3.68034C0.474403 3.79126 0.398395 3.92632 0.350055 4.07264C0.301574 4.21911 0.280937 4.37401 0.280937 4.53754C0.280937 4.91413 0.392858 5.32781 0.593354 5.74855C0.79385 6.1693 1.08547 6.59434 1.46161 6.98096C1.83342 7.36339 2.2386 7.65768 2.63945 7.8595C3.04044 8.06135 3.43576 8.17072 3.79662 8.17224C3.95702 8.17224 4.11188 8.14949 4.25566 8.09825C4.39945 8.04855 4.53351 7.96749 4.64273 7.8552L7.12079 5.31445C7.1197 5.37471 7.11915 5.42495 7.11915 5.46618C7.11915 5.78851 7.08433 6.37929 7.53716 6.37929C7.66069 6.37929 7.85065 6.28977 7.85065 5.84223C7.85065 5.56695 8.12932 5.66081 8.12932 5.82419C8.12932 6.07503 8.12932 6.15276 8.12932 6.30754C8.12932 6.80892 8.28606 6.98814 8.54731 6.98814C8.80856 6.98814 9 6.79114 9 6.32557C9 5.85999 9 4.87525 9 4.23058C9.00002 3.66285 8.41015 2.91478 7.62546 2.65297ZM5.47433 3.41311C5.37523 3.32414 5.2764 3.22974 5.17919 3.12965C4.8094 2.74943 4.51372 2.3484 4.31391 1.98097C4.11301 1.61463 4.01244 1.27899 4.01406 1.05438C4.01406 1.01481 4.01744 0.979843 4.02257 0.947781L4.1534 0.813262C4.1742 0.793418 4.19768 0.776357 4.23493 0.763561C4.27234 0.749265 4.32351 0.740807 4.38846 0.740807C4.48795 0.740807 4.61796 0.762043 4.76581 0.813262C4.98844 0.887254 5.25118 1.02217 5.52483 1.20847C5.79865 1.396 6.0834 1.6363 6.35718 1.91781C6.56442 2.1302 6.74697 2.34925 6.90263 2.56497C6.429 2.60703 5.93147 2.85313 5.47433 3.41311Z" fill="#CFCFCF"/>
</svg>
