<svg width="17" height="18" viewBox="0 0 17 18" fill="none" xmlns="http://www.w3.org/2000/svg">
<path d="M16.1478 7.43224C15.9544 7.06089 15.8368 6.76427 15.7687 6.54233C15.7358 6.43904 15.7154 6.35393 15.7017 6.28414C15.9621 6.01059 16.161 5.68044 16.2686 5.30965C16.3324 5.0921 16.3642 4.86798 16.3642 4.64498C16.3642 4.20223 16.2401 3.76334 16.0006 3.38101L14.6525 1.22934C14.4581 0.918984 14.2043 0.648176 13.8988 0.444902C13.5934 0.241629 13.2353 0.107684 12.8469 0.0791016C12.7815 0.0741445 12.7172 0.0719648 12.653 0.0719648C12.018 0.0692227 11.4044 0.316969 10.9611 0.800895C10.9391 0.818473 10.8919 0.853629 10.8336 0.883301C10.7677 0.917895 10.6963 0.937125 10.6568 0.936035C10.6117 0.93825 10.5046 0.909668 10.3865 0.84266C10.2684 0.77618 10.1421 0.6795 10.0393 0.588867C9.59112 0.196664 9.02971 0 8.4716 0C7.9135 0 7.35209 0.196664 6.90493 0.588867C6.80164 0.678973 6.67533 0.77618 6.55668 0.84157C6.43802 0.909703 6.33146 0.93825 6.28587 0.93607C6.24575 0.93716 6.17435 0.91793 6.109 0.883336C6.05021 0.853664 6.00188 0.81798 5.98046 0.80093C5.53718 0.316969 4.92413 0.0686953 4.28913 0.0714375C4.22378 0.0714375 4.15948 0.0747422 4.09795 0.0791367H4.09574C3.70793 0.106594 3.34867 0.241172 3.04379 0.444973C2.73836 0.648211 2.48404 0.919582 2.28959 1.22994L0.94159 3.38105C0.70207 3.76337 0.579023 4.20226 0.579023 4.64393C0.579023 4.86805 0.610875 5.09217 0.674051 5.31081C0.782262 5.67995 0.980016 6.01063 1.24038 6.28365C1.19974 6.49241 1.09041 6.86317 0.79432 7.43337C0.271371 8.4408 0 9.47682 0 10.4909C0 11.0786 0.0911953 11.6587 0.275203 12.2168C0.79766 13.8027 2.02482 15.0892 3.76066 15.9357C4.75713 16.424 5.77445 16.9003 6.54462 17.2551C6.92916 17.4331 7.25214 17.5803 7.47956 17.6836C7.59326 17.7352 7.6828 17.7753 7.74432 17.8033C7.77509 17.8171 7.79871 17.8275 7.81464 17.8352L7.83221 17.8429L7.83552 17.844H7.83608C8.03598 17.9473 8.25409 18 8.4716 18C8.68911 18 8.90666 17.9473 9.1055 17.844L9.10607 17.8451C9.13025 17.8341 9.65978 17.5968 10.4239 17.2436C11.1896 16.8904 12.1949 16.4191 13.1825 15.9357C14.9178 15.0892 16.1461 13.8027 16.668 12.2168C16.852 11.6587 16.9432 11.0786 16.9432 10.4908C16.9432 9.47682 16.6718 8.4408 16.1478 7.43224ZM7.81133 17.8319C7.81189 17.8319 7.81242 17.8319 7.81298 17.833L7.81682 17.8352L7.81133 17.8319ZM15.844 11.9454C15.4051 13.2737 14.3768 14.3844 12.8013 15.1567C11.8109 15.6418 10.7985 16.1158 10.0338 16.4685C9.65152 16.6454 9.33072 16.7915 9.10494 16.8937C8.99234 16.9448 8.90336 16.9849 8.84236 17.0124C8.81216 17.0261 8.78797 17.0365 8.77261 17.0442L8.75394 17.0524L8.74846 17.0552L8.74515 17.0563L8.74294 17.0574L8.73141 17.0628L8.72427 17.0661L8.7177 17.07C8.6419 17.1112 8.55566 17.1326 8.4716 17.1326C8.38811 17.1326 8.3013 17.1112 8.22551 17.07L8.22111 17.0673L8.22881 17.0717L8.20684 17.0607L8.19584 17.0552C8.14859 17.0338 7.62455 16.7981 6.8632 16.4471C6.10239 16.0961 5.11035 15.6313 4.1419 15.1567C2.56757 14.3844 1.53812 13.2737 1.09923 11.9454C0.944332 11.4752 0.866883 10.9885 0.866883 10.4908C0.866883 9.63225 1.09649 8.7352 1.56452 7.83323C2.0199 6.95433 2.11932 6.42203 2.13142 6.14517L2.14021 5.93367L1.9787 5.79635C1.75567 5.6063 1.59089 5.35416 1.50683 5.06795C1.46619 4.92841 1.4464 4.7867 1.4464 4.64386C1.4464 4.36261 1.52494 4.08466 1.67657 3.84184L3.02513 1.68961C3.1597 1.47537 3.33165 1.2941 3.52445 1.16666C3.71781 1.03813 3.92984 0.96068 4.15948 0.943629L4.14134 0.944719L4.15726 0.943629C4.20395 0.940324 4.24789 0.939234 4.2891 0.939234C4.72637 0.941977 5.08507 1.09413 5.36906 1.41384L5.39213 1.44077L5.41958 1.46331C5.46957 1.50395 5.57009 1.58196 5.71402 1.65558C5.85795 1.72811 6.04909 1.80225 6.28587 1.8039C6.55889 1.80169 6.78519 1.70613 6.98077 1.59845C7.17578 1.48859 7.34221 1.3584 7.4757 1.2414C7.7619 0.992004 8.11564 0.867867 8.4716 0.867305C8.82756 0.867867 9.18243 0.992004 9.46807 1.2414C9.60156 1.35896 9.76799 1.48971 9.96247 1.59845C10.158 1.70613 10.3843 1.80169 10.6568 1.8039C10.8941 1.80225 11.0847 1.72811 11.2292 1.65558C11.3731 1.58143 11.4731 1.50342 11.5225 1.46331L11.55 1.44077L11.5736 1.41384C11.8576 1.09413 12.2158 0.942539 12.653 0.939234C12.6959 0.939234 12.7393 0.940887 12.7838 0.943629C13.0134 0.961207 13.2254 1.03813 13.4182 1.16666C13.611 1.29466 13.7835 1.47537 13.9176 1.68961L15.2656 3.84128C15.4183 4.08463 15.4963 4.36366 15.4963 4.64491C15.4963 4.78663 15.4765 4.92838 15.4359 5.06788C15.3524 5.35461 15.1865 5.60675 14.9634 5.79628L14.8019 5.9336L14.8107 6.14454C14.8173 6.30935 14.8536 6.52029 14.9404 6.79932C15.0266 7.07783 15.1645 7.42061 15.3782 7.83204C15.8468 8.73513 16.0758 9.63271 16.0764 10.4907C16.0758 10.9891 15.9994 11.4747 15.844 11.9454Z" fill="#CFCFCF"/>
<path d="M13.9846 4.64393L12.6365 2.49279C12.6365 2.49279 10.7985 4.4176 8.4716 2.37962C6.14359 4.4176 4.30615 2.49279 4.30615 2.49279L2.95868 4.64393C2.95868 4.64393 4.53466 5.39374 2.90595 8.52979C1.77216 10.715 2.49943 12.6705 4.80656 13.7988C6.85663 14.8024 8.4716 15.6813 8.4716 15.6813C8.4716 15.6813 10.086 14.8024 12.1366 13.7988C14.4438 12.6705 15.1711 10.715 14.0362 8.52979C12.4069 5.39374 13.9846 4.64393 13.9846 4.64393Z" fill="#CFCFCF"/>
</svg>