<svg width="9" height="9" viewBox="0 0 9 9" fill="none" xmlns="http://www.w3.org/2000/svg">
<path d="M6.39819 0C7.14332 0 7.79292 0.493349 7.97408 1.19684L8.16664 1.94628H8.62304C8.81284 1.94628 8.96971 2.08357 8.99455 2.26169L8.99795 2.31121C8.99795 2.49596 8.85688 2.64864 8.67392 2.67281L8.62304 2.67614H8.3551L8.45907 3.07829C8.7834 3.27038 9 3.61765 9 4.01421V8.1485C9 8.61877 8.60834 9 8.1252 9H7.37332C6.89018 9 6.49852 8.61877 6.49852 8.1485L6.49802 7.54185H2.50143L2.50147 8.1485C2.50147 8.61877 2.10981 9 1.62667 9H0.874801C0.391661 9 0 8.61877 0 8.1485V4.01421C0 3.61775 0.216531 3.27047 0.540762 3.07837L0.644353 2.67614H0.374915C0.185108 2.67614 0.0282486 2.53885 0.00342422 2.36073L0 2.31121C0 2.12646 0.141043 1.97378 0.324041 1.94962L0.374915 1.94628H0.831311L1.02426 1.19782C1.20507 0.493855 1.85489 0 2.60038 0H6.39819ZM1.7516 7.54185H0.749329L0.749829 8.1485C0.749829 8.21565 0.805781 8.27014 0.874801 8.27014H1.62667C1.69569 8.27014 1.75164 8.21565 1.75164 8.1485L1.7516 7.54185ZM8.25012 7.54185H7.24785L7.24835 8.1485C7.24835 8.21565 7.30429 8.27014 7.37332 8.27014H8.1252C8.19423 8.27014 8.25017 8.21565 8.25017 8.1485L8.25012 7.54185ZM5.37413 5.35228H3.62367L3.57279 5.35559C3.3898 5.37977 3.24875 5.53245 3.24875 5.71721C3.24875 5.90196 3.3898 6.05464 3.57279 6.07882L3.62367 6.08213H5.37413L5.42501 6.07882C5.60802 6.05464 5.74904 5.90196 5.74904 5.71721C5.74904 5.51567 5.58123 5.35228 5.37413 5.35228ZM6.99841 4.37914C6.72232 4.37914 6.49852 4.59697 6.49852 4.86571C6.49852 5.13439 6.72232 5.35223 6.99841 5.35223C7.27444 5.35223 7.49824 5.13439 7.49824 4.86571C7.49824 4.59697 7.27444 4.37914 6.99841 4.37914ZM1.99953 4.37914C1.72346 4.37914 1.49966 4.59697 1.49966 4.86571C1.49966 5.13439 1.72346 5.35223 1.99953 5.35223C2.27561 5.35223 2.49941 5.13439 2.49941 4.86571C2.49941 4.59697 2.27561 4.37914 1.99953 4.37914ZM6.39819 0.729856H2.60038C2.19896 0.729856 1.84905 0.995777 1.7517 1.37483L1.35498 2.91942H7.64471L7.24675 1.37431C7.14922 0.995504 6.7994 0.729856 6.39819 0.729856Z" fill="#CFCFCF"/>
</svg>
