<svg width="12" height="8" viewBox="0 0 12 8" fill="none" xmlns="http://www.w3.org/2000/svg">
<path d="M12 1.99944V1.12664H11.9508V0.294647H11.9023V0H11.5555V0.293905C11.5555 0.293905 3.163 0.351795 1.69773 0.293905C1.47359 0.293905 0.193854 0.41785 1.47738 2.35198C1.47738 2.35198 2.06045 3.21885 1.26156 4.18592C0.473276 5.13888 0.11813 7.0693 0.0257462 7.65266H0V8H3.63703V7.65266V7.33352C2.06575 7.61703 4.72291 4.03303 4.60478 4.63642C4.69035 4.65795 4.77895 4.67131 4.87133 4.67131H5.81788C6.40247 4.67131 7.17865 4.05826 7.17865 3.48455C7.17865 3.23592 7.08929 3.00807 6.94087 2.82921H11.6244L11.7759 2.28296H11.9743V2.01874H11.9417L11.95 1.99944H12ZM5.8194 4.16365H4.87285C4.80318 4.16365 4.73579 4.15252 4.67218 4.13396C4.72746 3.81557 4.76986 3.53057 4.80015 3.30866C4.87966 3.56619 5.0349 3.83561 5.34006 3.95213C5.36127 3.96029 5.38323 3.964 5.40519 3.964C5.47637 3.964 5.54452 3.92096 5.57254 3.85268C5.60813 3.76139 5.56194 3.65971 5.46955 3.62408C5.15378 3.50385 5.09093 3.03627 5.07882 2.83143H5.99129C6.28889 2.90713 6.51076 3.17209 6.51076 3.48678C6.51076 3.85936 6.20029 4.16365 5.8194 4.16365ZM10.6756 2.28444H6.00038L6.81214 2.01948H10.6756V2.28444Z" fill="#D9D9D9"/>
</svg>
