<svg width="9" height="12" viewBox="0 0 9 12" fill="none" xmlns="http://www.w3.org/2000/svg">
<path d="M8.22163 4.61082C8.22163 7.46709 5.96222 10.3234 5.01794 11.3924C4.79792 11.6415 4.42372 11.6415 4.2037 11.3924C3.25943 10.3234 1 7.46709 1 4.61082C1 3.40721 1.9027 1 4.61082 1C7.31893 1 8.22163 3.40721 8.22163 4.61082Z" stroke="#CFCFCF" stroke-width="0.8" stroke-linejoin="round"/>
<path d="M4.61083 5.81442C5.27556 5.81442 5.81444 5.27555 5.81444 4.61082C5.81444 3.94608 5.27556 3.40721 4.61083 3.40721C3.9461 3.40721 3.40723 3.94608 3.40723 4.61082C3.40723 5.27555 3.9461 5.81442 4.61083 5.81442Z" stroke="#CFCFCF" stroke-width="0.8" stroke-linejoin="round"/>
</svg>